<?xml version="1.0" encoding="utf-8"?>
<!-- Generator: Adobe Illustrator 28.1.0, SVG Export Plug-In . SVG Version: 6.00 Build 0)  -->
<svg version="1.1" id="Layer_1" xmlns="http://www.w3.org/2000/svg" xmlns:xlink="http://www.w3.org/1999/xlink" x="0px" y="0px"
	 viewBox="0 0 4887 3507" style="enable-background:new 0 0 4887 3507;" xml:space="preserve">
<style type="text/css">
	.st0{clip-path:url(#SVGID_00000109722497439158988900000009536966325588327307_);}
	.st1{fill:#FFFFFF;}
	.st2{fill:#D6D8D9;}
	.st3{fill:#696A6D;}
	.st4{fill:#939598;}
	.st5{fill:#C8C9CB;}
	.st6{fill:#E2E3E4;}
	.st7{fill:#9A9C9F;}
	.st8{fill:#AFB1B4;}
	.st9{fill:#707274;}
	.st10{fill:#929497;}
	.st11{fill:#9FA1A4;}
</style>
<g>
	<defs>
		<rect id="SVGID_1_" width="4887" height="3507"/>
	</defs>
	<clipPath id="SVGID_00000021118103258980260390000008262389244476411821_">
		<use xlink:href="#SVGID_1_"  style="overflow:visible;"/>
	</clipPath>
	<g style="clip-path:url(#SVGID_00000021118103258980260390000008262389244476411821_);">
		<g>
			<path class="st1" d="M3955.8,1519.6c-6.2,3.8-12.3,7.8-18.6,11.2c-238.3,128.7-476.7,257.3-715,386c-24.5,13.3-22,8-9.9,31.5
				c192.7,375.3,385.6,750.5,578.4,1125.7c3,5.8,5.6,11.8,7.5,15.8c-0.1,3.9-1,4.4-2.7,4.5c-57.9,2.9-115.8,5.7-173.7,8.7
				c-67.9,3.4-135.7,6.9-203.6,10.4c-29.3,1.5-58.5,3.1-87.8,4.5c-67.2,3.2-134.4,6.2-201.7,9.5c-64.5,3.2-129.1,6.7-193.6,10.1
				c-29.3,1.5-58.5,3.1-87.8,4.5c-67.9,3.2-135.8,6.2-203.7,9.5c-63.9,3.2-127.7,6.8-191.6,10.1c-27.9,1.5-55.9,2.9-83.8,4.3
				c-67.9,3.2-135.8,6.2-203.6,9.6c-30.6,1.5-61.2,4.1-91.8,3.8c-15,0.1-30.7,6.7-44.7-4c32.9-8.1,65.8-16.4,98.8-24.3
				c143-34.3,286-68.5,429-102.6c142.4-34,284.8-67.8,427.1-101.8c82.8-19.8,165.6-39.7,248.4-59.6c2.5-0.6,5-1.5,7.4-2.2
				c1.6-7.7-2.8-13.3-5.1-19.3c-35.3-90.5-70.7-181-106.1-271.4c-65-166-130.1-332-195.2-498c-8.1-20.7-4.5-20.4-25.4-9.3
				c-485.6,259.2-971.3,518.4-1456.9,777.6c-191.4,102.2-382.8,204.4-574.3,306.5c-5.6,3-10.7,7.4-17.3,7.9c-2-3.9,0.4-5.8,1.5-7.8
				c524.4-948.3,1048.8-1896.6,1573.1-2844.8c7.9,2.8,8.2,9.7,10.7,14.9c34.8,71.2,69.3,142.4,103.8,213.7
				c145.9,301.2,291.9,602.5,437.8,903.8c0.9,1.8,1.7,3.6,2.6,5.4c6.6,13.2,6.6,13.3,21.2,9.3c170.7-46.6,341.4-93.2,512.1-139.8
				c4.5-1.2,9.1-2,13.6-3c4.5-1.7,5.2,0.6,4.6,4.3c-41.7,20.7-83.4,41.5-125.2,62.1c-458,225.3-916.1,450.6-1374.1,675.9
				c-4.2,2.1-8.4,4-12.6,6c-4,1.5-5.2,0.2-3.7-3.7c85.3-126.4,170.8-252.7,255.7-379.3c6.2-9.2,14-13.3,23.6-16.3
				c128.2-40.1,256.4-80.3,384.6-120.4c6.2-2,12.4-4.2,18-6.2c1.7-6.1-1.7-10-3.4-14.1c-86.3-205.4-254.1-593.8-262.4-607.8
				c-0.6-0.1-1.3-0.5-1.9-0.4c-0.6,0.1-1.2,0.7-1.5,1.2c-327.5,542.6-655,1085.1-982.4,1627.7c-1,1.7-1.6,3.6-2.1,5.5
				c-0.1,0.4,0.5,1,1.1,2.1c6.7,0.9,12.2-3.5,18-6c114.7-48.2,229.2-96.7,343.8-145.1c636.2-268.3,1272.4-536.6,1908.6-804.8
				c71.1-30,142.2-59.9,213.3-89.8c6.1-2.6,11.8-6.3,18.6-6.8c1.1,1,1.5,2,1.1,3C3956.4,1519.1,3956.1,1519.6,3955.8,1519.6z"/>
			<path class="st2" d="M2027.9,3175.5c3.5,4.1,8.4,3.2,13,3.4c10.6,0.3,21.2-1.9,31.7,0.7c-9.4,3.8-19.4,2.4-29.1,3.2
				c-7.8,0.6-15.7,0.7-23.6,1.1c-5.6-0.1-13,6.1-15.7-4.4C2012.5,3179.9,2019.7,3174.4,2027.9,3175.5z"/>
			<path class="st3" d="M2004.3,3179.4c1.2,2.7,3.6,3.2,6.2,3.4c3.2,0.3,6.3,0.7,9.5,1c-6.5,4.4-14,2.8-21.1,3c-1.8,0-4.5-0.2-3.8-3
				c0.4-1.6,2-3.4,3.5-4.1C2000.2,3179.1,2002.4,3179.5,2004.3,3179.4z"/>
			<path class="st4" d="M3546.9,1326.6c2.9-3.1,6.7-3.9,10.7-3.5c1,0.1,2,1.1,3,1.7c-0.7,1-1.3,2.3-2.2,2.8
				c-2.2,1.2-4.7,2.1-7.1,3.1C3549.6,1329.5,3547.1,1329.3,3546.9,1326.6z"/>
			<path class="st5" d="M3546.9,1326.6c1.4,1.4,2.9,2.8,4.3,4.2c-4,1.1-7.1,4.9-11.7,4.4c-1.5-1.4-3.1-2.9-4.6-4.3
				C3538,1326.7,3542.7,1327.3,3546.9,1326.6z"/>
			<path class="st6" d="M3955.8,1519.6c-0.1-1.5-0.1-3-0.2-4.6c1.5-3.3,4.6-3.6,7.6-4.1c4.1-1.8,4.8,0.2,4.1,3.7
				C3963.5,1516.4,3960.5,1520,3955.8,1519.6z"/>
			<path class="st7" d="M3970.9,1506.9c3.5-3.2,7.9-4.4,12.4-5.3c1.9,1.7,2,3.4,0.3,5.3c-2.7,1.4-5.4,2.7-8.1,4.1
				C3973.8,1509.9,3971.3,1509.5,3970.9,1506.9z"/>
			<path class="st8" d="M3970.9,1506.9c1.5,1.4,3.1,2.8,4.6,4.1c-2.7,1.2-5.5,2.5-8.2,3.7c-1.4-1.2-2.8-2.5-4.1-3.7
				C3965,1508.2,3967.7,1507.1,3970.9,1506.9z"/>
			<path class="st9" d="M3991.5,1498.2c1.7-2.4,3.8-3.4,5.8-0.8c0.4,0.5-1.3,3-2.5,4.2c-0.8,0.8-2.2,1-3.4,1.5
				C3989.4,1501.4,3989.4,1499.8,3991.5,1498.2z"/>
			<path class="st10" d="M3991.5,1498.2c0,1.6,0,3.3,0,4.9c-2.6,1.3-5.3,2.6-7.9,3.9c-0.1-1.8-0.2-3.5-0.3-5.3
				C3985.3,1498.8,3988.6,1499,3991.5,1498.2z"/>
			<path class="st11" d="M2023.9,2075.4c1.2,1.2,2.5,2.5,3.7,3.7c-0.9,0.8-1.6,1.9-2.6,2.5c-1.6,0.9-3.5,1.8-4.6-0.6
				c-0.4-0.9,0.2-2.4,0.8-3.3C2021.8,2076.8,2023,2076.2,2023.9,2075.4z"/>
		</g>
	</g>
</g>
</svg>
