<?xml version="1.0" encoding="utf-8"?>
<!-- Generator: Adobe Illustrator 28.1.0, SVG Export Plug-In . SVG Version: 6.00 Build 0)  -->
<svg version="1.1" id="Layer_1" xmlns="http://www.w3.org/2000/svg" xmlns:xlink="http://www.w3.org/1999/xlink" x="0px" y="0px"
	 viewBox="0 0 612 792" style="enable-background:new 0 0 612 792;" xml:space="preserve">
<style type="text/css">
	.st0{fill:#FEFEFE;}
	.st1{fill:#FDFDFD;}
	.st2{fill:#050505;}
	.st3{fill:#060505;}
	.st4{fill:#070505;}
	.st5{fill:#080404;}
	.st6{fill:#090404;}
	.st7{fill:#0A0404;}
	.st8{fill:#0B0404;}
	.st9{fill:#0C0303;}
	.st10{fill:#0D0303;}
	.st11{fill:#0E0303;}
	.st12{fill:#0F0303;}
	.st13{fill:#100303;}
	.st14{fill:#100202;}
	.st15{fill:#110202;}
	.st16{fill:#120202;}
	.st17{fill:#130202;}
	.st18{fill:#140202;}
	.st19{fill:#150101;}
	.st20{fill:#160101;}
	.st21{fill:#170101;}
	.st22{fill:#180101;}
	.st23{fill:#190000;}
	.st24{fill:#1A0000;}
	.st25{fill:#1B0000;}
	.st26{fill:#EBEBEB;}
</style>
<g>
	<path class="st0" d="M178.1,312.2l10.1,3.3c-0.2-1-0.4-2-0.6-3C184.5,311.7,181.2,312.4,178.1,312.2z"/>
	<path class="st1" d="M266.9,495.5c-0.5,0.7-1,1.4-1.6,2c0,0.8,0,1.6,0,2.4c0.3,0,0.6,0,0.9,0C266.3,498.5,266.6,497,266.9,495.5z"
		/>
	<g>
		<path id="XMLID_00000036213949610171005320000011005033308449654663_" class="st2" d="M336.2,264c1.2,3.8-1.5,11.4-3.7,16.9
			c-3.4,8.5-6.5,17.2-10.1,25.5c-9.5,22.5-19.3,44.5-28,67.4c-7.8,18.9-15.8,37.7-23.8,56.5c-6.6,15.5-14.5,31-27,42.6
			c-11.4,10.8-26,18.1-41.3,22c-6,1.5-14.2,2.4-17.2-1.8c-1.9-2.5-1.7-6.6-0.2-11.5c2.3-7.2,5.9-14.3,9-21.2
			c7.1-14.9,12.6-30.4,18.7-45.7c9.1-22,18.4-43.8,27.6-65.7c16-37.4,22.8-64.4,62.9-83.3c7.4-3.2,29.6-12.4,33-1.7L336.2,264z"/>
		<path class="st3" d="M334.9,264.4l0,0.1c1.2,3.6-1.4,11-3.5,16.2c-3.2,8.2-6.2,16.5-9.7,24.5c-9.1,21.5-18.2,42.9-26.8,64.7
			c-7.2,18.2-15.2,36.2-22.8,54.2c-6.3,14.9-14,29.7-25.9,40.9c-0.3,0.3-0.6,0.6-0.9,0.9c-10.9,10-24.5,16.8-38.8,20.2
			c-5.7,1.4-13.5,2.2-16.4-1.9c-1.8-2.5-1.7-6.4-0.2-11c2.2-6.9,5.6-13.8,8.6-20.4c6.6-14.4,12-29.2,18-43.9
			c8.6-21.1,17.6-42,26.5-63c10.6-25,17.1-45.1,32.9-61.1c7-7,15.6-13.5,27.5-18.9C310.3,262.9,331.4,254.2,334.9,264.4z"/>
		<path class="st4" d="M333.6,265l0,0.1c1.2,3.5-1.4,10.5-3.4,15.6c-3.1,7.9-6,15.8-9.2,23.5c-8.7,20.7-17.4,41.1-25.7,62
			c-6.9,17.5-14.5,34.7-21.9,52c-6.1,14.3-13.4,28.5-24.9,39.3c-0.3,0.3-0.6,0.6-0.9,0.9c-10.5,9.8-23.6,16.2-37.2,19.4
			c-5.4,1.3-12.9,2-15.6-1.9c-1.7-2.4-1.6-6.1-0.2-10.6c2.1-6.6,5.4-13.2,8.3-19.6c6.4-13.8,11.5-28,17.3-42.1
			c8.2-20.2,16.8-40.3,25.3-60.4c10.1-23.9,16.4-43.1,31.5-58.5c6.6-6.7,15-12.9,26.2-18.1C310.1,263.5,330.3,255.2,333.6,265z"/>
		<path class="st5" d="M332.4,265.5l0,0.1c1.1,3.4-1.3,10-3.2,14.9c-2.9,7.5-5.7,15.1-8.8,22.5c-8.3,19.8-16.6,39.4-24.5,59.4
			c-6.6,16.7-13.9,33.2-20.9,49.8c-5.8,13.7-12.9,27.3-23.8,37.6c-0.3,0.3-0.6,0.6-0.9,0.8c-10.2,9.5-22.6,15.6-35.6,18.5
			c-5.2,1.2-12.2,1.8-14.9-2c-1.6-2.3-1.5-5.9-0.2-10.1c2-6.4,5.1-12.6,7.9-18.7c6.1-13.2,11-26.9,16.5-40.4
			c7.9-19.3,16.1-38.5,24.2-57.6c9.7-22.8,15.6-41.2,30.1-55.9c6.3-6.4,14.3-12.3,25.1-17.3C309.9,264.1,329.2,256.2,332.4,265.5z"
			/>
		<path class="st6" d="M331.1,266.1l0,0.1c1.1,3.2-1.2,9.6-3,14.2c-2.8,7.2-5.4,14.4-8.4,21.5c-7.9,18.9-15.8,37.6-23.4,56.7
			c-6.3,16-13.3,31.8-20,47.6c-5.6,13.1-12.3,26.1-22.7,35.9c-0.3,0.2-0.6,0.5-0.8,0.8c-9.9,9.2-21.7,15-34,17.6
			c-4.9,1-11.6,1.6-14.1-2c-1.5-2.2-1.4-5.6-0.2-9.7c1.9-6.1,4.9-12.1,7.6-17.9c5.8-12.6,10.5-25.7,15.8-38.6
			c7.5-18.4,15.3-36.7,23.1-55c9.2-21.8,14.9-39.3,28.7-53.3c6-6.1,13.6-11.7,23.9-16.5C309.7,264.8,328.1,257.2,331.1,266.1z"/>
		<path class="st7" d="M329.9,266.6L329.9,266.6c1.1,3.1-1.1,9.2-2.8,13.6c-2.6,6.8-5.1,13.8-7.9,20.5c-7.5,18-15,35.8-22.2,54
			c-6,15.2-12.7,30.3-19,45.4c-5.3,12.5-11.7,24.9-21.6,34.3c-0.3,0.2-0.5,0.5-0.8,0.8c-9.5,9-20.8,14.4-32.4,16.8
			c-4.7,0.9-11,1.4-13.3-2.1c-1.4-2.1-1.4-5.4-0.1-9.2c1.8-5.8,4.6-11.5,7.2-17.1c5.5-12.1,10.1-24.5,15.1-36.8
			c7.1-17.5,14.6-34.9,22-52.3c8.8-20.7,14.2-37.4,27.3-50.6c5.7-5.8,12.9-11.2,22.7-15.7C309.5,265.4,327,258.2,329.9,266.6z"/>
		<path class="st8" d="M328.6,267.2L328.6,267.2c1,3-1,8.8-2.6,13c-2.5,6.5-4.8,13.1-7.5,19.5c-7.1,17.1-14.2,34-21.1,51.4
			c-5.7,14.5-12,28.8-18.1,43.1c-5.1,11.9-11.1,23.7-20.5,32.6c-0.2,0.2-0.5,0.5-0.8,0.7c-9.2,8.7-19.9,13.8-30.9,15.9
			c-4.4,0.8-10.4,1.2-12.6-2.1c-1.3-2-1.3-5.1-0.1-8.8c1.7-5.5,4.4-11,6.8-16.3c5.2-11.5,9.6-23.3,14.3-35
			c6.8-16.6,13.8-33.1,20.8-49.6c8.3-19.6,13.5-35.4,25.9-48c5.4-5.5,12.2-10.6,21.5-14.9C309.3,266.1,325.8,259.2,328.6,267.2z"/>
		<path class="st9" d="M327.3,267.8L327.3,267.8c1,2.8-1,8.3-2.5,12.3c-2.3,6.1-4.5,12.4-7,18.5c-6.7,16.2-13.4,32.3-19.9,48.7
			c-5.4,13.8-11.4,27.3-17.2,40.9c-4.8,11.3-10.6,22.5-19.5,30.9c-0.2,0.2-0.5,0.5-0.7,0.7c-8.8,8.4-18.9,13.2-29.3,15
			c-4.1,0.7-9.7,1.1-11.8-2.2c-1.2-1.9-1.2-4.9-0.1-8.4c1.6-5.2,4.2-10.4,6.5-15.5c5-10.9,9.1-22.1,13.6-33.2
			c6.4-15.7,13.1-31.3,19.7-46.9c7.9-18.5,12.8-33.5,24.5-45.4c5.1-5.2,11.6-10,20.3-14.2C309.1,266.7,324.7,260.2,327.3,267.8z"/>
		<path class="st10" d="M326.1,268.3L326.1,268.3c0.9,2.7-0.9,7.8-2.3,11.6c-2.2,5.8-4.2,11.7-6.6,17.5
			c-6.3,15.3-12.6,30.5-18.8,46.1c-5.1,13-10.8,25.9-16.2,38.7c-4.6,10.7-10,21.3-18.4,29.3c-0.2,0.2-0.5,0.5-0.7,0.7
			c-8.5,8.2-18,12.6-27.7,14.2c-3.9,0.6-9.1,0.9-11.1-2.2c-1.1-1.8-1.1-4.6-0.1-7.9c1.5-4.9,3.9-9.9,6.1-14.6
			c4.7-10.3,8.6-20.9,12.9-31.5c6-14.8,12.3-29.5,18.6-44.2c7.4-17.5,12.1-31.6,23.1-42.8c4.8-4.9,10.9-9.5,19.1-13.4
			C309,267.4,323.6,261.2,326.1,268.3z"/>
		<path class="st11" d="M324.8,268.9L324.8,268.9c0.9,2.6-0.8,7.4-2.1,10.9c-2,5.5-3.9,11-6.2,16.5c-5.8,14.4-11.9,28.8-17.6,43.4
			c-4.8,12.3-10.2,24.4-15.3,36.5c-4.3,10.1-9.4,20.1-17.3,27.6c-0.2,0.2-0.5,0.4-0.6,0.6c-8.1,7.9-17.1,12-26.1,13.3
			c-3.6,0.5-8.5,0.7-10.3-2.3c-1.1-1.7-1-4.4-0.1-7.5c1.4-4.7,3.7-9.3,5.8-13.8c4.4-9.7,8.1-19.7,12.1-29.7
			c5.7-13.9,11.6-27.7,17.5-41.5c7-16.4,11.4-29.6,21.7-40.2c4.5-4.6,10.2-8.9,17.9-12.6C308.8,268,322.5,262.3,324.8,268.9z"/>
		<path class="st12" d="M323.5,269.4L323.5,269.4c0.8,2.4-0.7,6.9-2,10.3c-1.9,5.1-3.7,10.4-5.7,15.5c-5.4,13.5-11.1,27-16.5,40.8
			c-4.5,11.5-9.5,22.9-14.4,34.3c-4.1,9.5-8.9,18.9-16.2,25.9c-0.2,0.2-0.4,0.4-0.6,0.6c-7.8,7.6-16.1,11.4-24.5,12.5
			c-3.4,0.4-7.9,0.5-9.5-2.3c-1-1.6-0.9-4.1,0-7c1.4-4.4,3.5-8.7,5.4-13c4.1-9.1,7.6-18.6,11.4-27.9c5.3-13,10.9-25.9,16.3-38.8
			c6.5-15.3,10.6-27.7,20.2-37.6c4.2-4.3,9.5-8.3,16.7-11.8C308.6,268.7,321.4,263.3,323.5,269.4z"/>
		<path class="st13" d="M322.3,270L322.3,270c0.8,2.2-0.6,6.5-1.8,9.6c-1.7,4.8-3.4,9.7-5.3,14.5c-5,12.6-10.3,25.2-15.3,38.1
			c-4.2,10.8-8.9,21.5-13.4,32c-3.8,8.9-8.3,17.7-15.1,24.3c-0.2,0.2-0.4,0.4-0.6,0.6c-7.5,7.4-15.2,10.8-22.9,11.6
			c-3.1,0.3-7.2,0.3-8.8-2.4c-0.9-1.5-0.9-3.8,0-6.5c1.3-4.1,3.2-8.2,5-12.1c3.9-8.5,7.1-17.4,10.6-26.1
			c4.9-12.1,10.1-24.1,15.2-36.1c6.1-14.3,9.9-25.8,18.9-35c3.9-4,8.9-7.7,15.5-11C308.4,269.3,320.2,264.3,322.3,270z"/>
		<path class="st14" d="M321,270.6L321,270.6c0.7,2.1-0.6,6-1.6,8.9c-1.6,4.5-3.1,9-4.9,13.4c-4.6,11.7-9.5,23.5-14.2,35.4
			c-3.9,10-8.3,20-12.5,29.8c-3.6,8.3-7.7,16.5-14,22.6c-0.1,0.1-0.4,0.4-0.5,0.5c-7.1,7.1-14.2,10.2-21.3,10.7
			c-2.8,0.2-6.6,0.1-8-2.4c-0.8-1.4-0.8-3.6,0-6.1c1.2-3.8,3-7.6,4.7-11.3c3.6-8,6.6-16.2,9.9-24.3c4.6-11.2,9.4-22.3,14.1-33.4
			c5.6-13.2,9.2-23.9,17.4-32.4c3.6-3.7,8.2-7.2,14.3-10.2C308.2,269.9,319.1,265.3,321,270.6z"/>
		<path class="st15" d="M319.8,271.1C319.8,271.1,319.8,271.2,319.8,271.1c0.7,2-0.5,5.5-1.4,8.2c-1.4,4.1-2.8,8.3-4.4,12.4
			c-4.2,10.8-8.7,21.7-13,32.8c-3.6,9.3-7.7,18.5-11.5,27.6c-3.3,7.7-7.1,15.3-13,20.9c-0.1,0.1-0.4,0.4-0.5,0.5
			c-6.8,6.8-13.3,9.6-19.8,9.9c-2.6,0.1-6,0-7.2-2.5c-0.7-1.3-0.7-3.3,0-5.6c1.1-3.5,2.8-7.1,4.3-10.5c3.3-7.4,6.1-15,9.2-22.5
			c4.2-10.3,8.6-20.5,13-30.7c5.2-12.1,8.5-22,16-29.8c3.3-3.4,7.5-6.6,13.1-9.5C308,270.6,318,266.3,319.8,271.1z"/>
		<path class="st16" d="M318.5,271.7L318.5,271.7c0.6,1.8-0.4,5.1-1.3,7.6c-1.3,3.8-2.5,7.6-4,11.4c-3.8,9.9-7.9,19.9-11.9,30.1
			c-3.3,8.6-7,17-10.6,25.4c-3,7.1-6.6,14.1-11.9,19.3c-0.1,0.1-0.3,0.4-0.5,0.5c-6.4,6.6-12.4,9-18.2,9c-2.3,0-5.3-0.2-6.5-2.5
			c-0.6-1.2-0.6-3.1,0.1-5.2c1-3.2,2.5-6.5,3.9-9.7c3-6.8,5.6-13.8,8.5-20.8c3.9-9.4,7.9-18.7,11.8-28c4.7-11,7.8-20,14.6-27.1
			c3-3.1,6.8-6,11.9-8.7C307.8,271.2,316.9,267.3,318.5,271.7z"/>
		<path class="st17" d="M317.2,272.2C317.2,272.2,317.2,272.3,317.2,272.2c0.6,1.6-0.3,4.6-1.1,6.9c-1.1,3.4-2.2,7-3.5,10.4
			c-3.4,9-7.1,18.2-10.7,27.5c-3,7.8-6.4,15.5-9.7,23.2c-2.8,6.5-6,12.9-10.8,17.6c-0.1,0.1-0.3,0.3-0.4,0.4
			c-6.1,6.3-11.4,8.5-16.6,8.1c-2-0.1-4.7-0.4-5.7-2.5c-0.5-1.1-0.5-2.8,0.1-4.8c0.9-3,2.3-6,3.6-8.9c2.7-6.2,5.1-12.6,7.7-19
			c3.5-8.5,7.1-16.9,10.7-25.3c4.3-10,7.1-18.1,13.2-24.5c2.7-2.8,6.1-5.5,10.7-7.9C307.6,271.9,315.8,268.3,317.2,272.2z"/>
		<path class="st18" d="M316,272.8L316,272.8c0.5,1.5-0.3,4.2-0.9,6.2c-1,3.1-2,6.3-3.1,9.4c-3,8.1-6.3,16.4-9.6,24.8
			c-2.7,7.1-5.8,14.1-8.7,21c-2.5,5.9-5.4,11.7-9.7,15.9c-0.1,0.1-0.3,0.3-0.4,0.4c-5.8,6-10.5,7.9-15,7.3c-1.8-0.2-4.1-0.6-5-2.6
			c-0.5-1-0.4-2.6,0.1-4.3c0.8-2.7,2.1-5.4,3.2-8c2.5-5.6,4.6-11.5,7-17.2c3.1-7.6,6.4-15.1,9.6-22.6c3.9-8.9,6.4-16.2,11.8-21.9
			c2.4-2.5,5.5-4.9,9.5-7.1C307.4,272.5,314.6,269.3,316,272.8z"/>
		<path class="st19" d="M314.7,273.4C314.7,273.4,314.7,273.4,314.7,273.4c0.5,1.4-0.2,3.7-0.7,5.5c-0.8,2.8-1.7,5.6-2.7,8.4
			c-2.6,7.3-5.5,14.6-8.4,22.1c-2.4,6.3-5.2,12.6-7.8,18.7c-2.3,5.3-4.8,10.5-8.6,14.3c-0.1,0.1-0.3,0.3-0.3,0.4
			c-5.4,5.8-9.5,7.3-13.4,6.4c-1.5-0.3-3.5-0.8-4.2-2.6c-0.4-1-0.3-2.3,0.1-3.9c0.7-2.4,1.8-4.8,2.9-7.2c2.2-5,4.1-10.3,6.2-15.4
			c2.8-6.7,5.6-13.3,8.5-19.9c3.4-7.8,5.6-14.3,10.4-19.3c2.1-2.2,4.8-4.3,8.3-6.3C307.2,273.2,313.5,270.3,314.7,273.4z"/>
		<path class="st20" d="M313.4,273.9L313.4,273.9c0.4,1.2-0.1,3.2-0.6,4.9c-0.7,2.4-1.4,4.9-2.2,7.4c-2.2,6.4-4.7,12.9-7.3,19.5
			c-2.1,5.6-4.5,11.1-6.9,16.5c-2,4.7-4.3,9.3-7.5,12.6c-0.1,0.1-0.2,0.3-0.3,0.4c-5.1,5.5-8.5,6.7-11.8,5.5
			c-1.2-0.4-2.8-0.9-3.4-2.7c-0.3-0.9-0.3-2,0.1-3.4c0.6-2.1,1.6-4.3,2.5-6.4c1.9-4.5,3.6-9.1,5.5-13.6c2.4-5.8,4.9-11.5,7.4-17.2
			c3-6.8,4.9-12.4,9-16.7c1.8-1.9,4.1-3.8,7.1-5.6C307,273.8,312.4,271.3,313.4,273.9z"/>
		<path class="st21" d="M312.2,274.5C312.2,274.5,312.2,274.5,312.2,274.5c0.4,1,0,2.8-0.4,4.2c-0.5,2.1-1.1,4.2-1.8,6.4
			c-1.8,5.5-4,11.1-6.1,16.8c-1.8,4.9-3.9,9.6-5.9,14.3c-1.8,4.1-3.7,8.1-6.5,10.9c0,0.1-0.2,0.3-0.3,0.3c-4.7,5.3-7.5,6.1-10.2,4.7
			c-1-0.5-2.2-1.1-2.7-2.7c-0.2-0.8-0.2-1.8,0.2-3c0.5-1.8,1.4-3.7,2.1-5.6c1.6-3.9,3.1-7.9,4.8-11.9c2-4.9,4.1-9.7,6.2-14.5
			c2.5-5.7,4.2-10.4,7.6-14.1c1.5-1.6,3.4-3.2,5.9-4.8C306.8,274.4,311.3,272.3,312.2,274.5z"/>
		<path class="st22" d="M310.9,275L310.9,275c0.3,0.9,0,2.3-0.2,3.5c-0.4,1.7-0.8,3.5-1.4,5.4c-1.4,4.6-3.2,9.3-5,14.2
			c-1.5,4.1-3.3,8.2-5,12.1c-1.5,3.5-3.1,6.9-5.4,9.3c0,0-0.2,0.2-0.2,0.3c-4.4,5-6.6,5.6-8.7,3.8c-0.7-0.6-1.6-1.3-1.9-2.8
			c-0.1-0.7-0.1-1.5,0.2-2.5c0.5-1.6,1.1-3.1,1.8-4.7c1.3-3.3,2.6-6.7,4-10.1c1.7-4,3.4-8,5.1-11.8c2-4.6,3.5-8.5,6.2-11.5
			c1.1-1.3,2.7-2.6,4.7-4C306.6,275.1,310.1,273.3,310.9,275z"/>
		<path class="st23" d="M309.6,275.6C309.6,275.6,309.6,275.6,309.6,275.6c0.3,0.8,0.1,1.9,0,2.8c-0.2,1.4-0.5,2.9-0.9,4.4
			c-1,3.7-2.4,7.6-3.8,11.5c-1.2,3.4-2.7,6.7-4,9.9c-1.3,2.9-2.5,5.7-4.3,7.6c0,0-0.2,0.2-0.2,0.2c-4.1,4.8-5.6,5.1-7.1,2.9
			c-0.4-0.7-1-1.5-1.1-2.8c-0.1-0.6,0-1.3,0.2-2.1c0.4-1.3,0.9-2.6,1.4-3.9c1.1-2.7,2.1-5.5,3.3-8.3c1.3-3.1,2.6-6.1,4-9.1
			c1.6-3.6,2.8-6.6,4.8-8.9c0.8-1,2-2.1,3.5-3.2C306.5,275.7,309,274.3,309.6,275.6z"/>
		<path class="st24" d="M308.4,276.2L308.4,276.2c0.2,0.6,0.2,1.4,0.1,2.2c-0.1,1-0.2,2.2-0.5,3.4c-0.6,2.8-1.6,5.8-2.7,8.8
			c-0.9,2.6-2,5.2-3.1,7.6c-1,2.3-2,4.5-3.2,5.9c0,0-0.1,0.2-0.1,0.2c-3.7,4.5-4.8,4.7-5.5,2.1c-0.2-0.7-0.4-1.6-0.4-2.9
			c0-0.5,0.1-1,0.2-1.6c0.3-1,0.6-2,1-3.1c0.8-2.1,1.6-4.4,2.6-6.5c0.9-2.2,1.9-4.4,2.9-6.4c1.2-2.5,2.1-4.6,3.4-6.3
			c0.5-0.6,1.4-1.6,2.3-2.4C306.3,276.3,307.9,275.2,308.4,276.2z"/>
		<path class="st25" d="M301.6,296.4c1.2-2.1,3-5.9,4.3-9.7c1.3-3.8,2.1-7.7,1.3-10c-0.9-0.7-2.1,1.9-2.7,2.6
			c-1.1,1.8-2.5,4.5-3.7,7.4c-1.2,2.9-2.3,5.9-2.8,8.2c-1,5.1,0,7.8,3.5,1.7L301.6,296.4z"/>
	</g>
	<path class="st26" d="M284,464.8c-0.5,1.1-1,2.2-1.6,3.3c-0.3,0.6-0.6,1.2-0.9,1.8c0.3-0.1,0.5-0.2,0.8-0.2
		c0.5-1.1,0.9-2.1,1.4-3.2C283.8,466,283.9,465.4,284,464.8z"/>
	<path d="M360.2,496.2c-1,0.1-1.7,0.7-2.2,1.5c-5.2,2.5-10.4,4.7-16.2,5.6c-3.5,0.6-5.7,0.1-7-3.3c-5.2-13.1-10.3-26.2-15.5-39.3
		c-3.2-8.1-6.6-16.2-9.7-24.3c-1-2.7-2.4-4-5.4-3.7c-3.8,0.3-7.7-0.1-11.6,0.1c-2.4,0.1-3.5-0.8-4.4-3c-3.4-8.2-3.4-8.2,5.5-8.2
		c32.2,0,64.4,0,96.6-0.1c1.6,0.3,2,1.8,2.4,3c0.7,2.2,1.7,4.4,2.6,6.6c0,0.4,0,0.8-0.1,1.2c-1.1,1.6-2.9,1.3-4.5,1.3
		c-6,0-12,0-18,0c-4.2,0-4.2,0.1-2.7,4.2c2.1,5.7,5.1,11.1,6.2,17.2c1.4,7.7,2,15.3-2,22.6c-0.7,1.2-0.8,2.6-1.4,3.8
		c-1.4,2.2-2.4,4.7-4.4,6.6C365.7,490.8,362.9,493.5,360.2,496.2z"/>
	<path d="M373.6,404c0.7-3.4-0.8-7.3-1.9-10.6c-5.8-15-12.3-30.1-18.4-45.1c-2.8-6.7-5.5-13.5-8.2-20.2c-2.2-5.2-3.9-9.5-7.1-11.5
		c-4-1.7-6.4,5-7.8,8.2c-1.9,4.9-4,9.9-6.3,15.2c-5,12.9-11.1,25.4-15.3,38.5c-2.6,9.2-1.1,21.1,6.9,27.2c6.3,4.8,16.2,3.7,24,3.9
		c5.8,0,11.6,0,17.5,0c5.5-0.3,14.7,1,16.6-5.4L373.6,404z"/>
	<path class="st2" d="M317.1,372.4c-0.3,0.1-0.5,0.1-0.8,0.2c-0.7,1.6-1.3,3.3-2,4.9C315.2,375.8,316.1,374.1,317.1,372.4z"/>
</g>
</svg>
